<mxfile host="app.diagrams.net" agent="Mozilla/5.0 (Windows NT 10.0; Win64; x64) AppleWebKit/537.36 (KHTML, like Gecko) Chrome/134.0.0.0 Safari/537.36" version="26.1.1" pages="2">
  <diagram name="Страница — 1" id="iO0HGuXwTPH4etKMsPex">
    <mxGraphModel dx="3154" dy="4253" grid="1" gridSize="10" guides="1" tooltips="1" connect="1" arrows="1" fold="1" page="1" pageScale="1" pageWidth="827" pageHeight="1169" math="0" shadow="0">
      <root>
        <mxCell id="0" />
        <mxCell id="1" parent="0" />
        <mxCell id="kRywIsPJXTSg0KDeLOMC-6" value="" style="edgeStyle=orthogonalEdgeStyle;rounded=0;orthogonalLoop=1;jettySize=auto;html=1;strokeColor=default;endArrow=classic;startFill=0;endFill=1;" edge="1" parent="1" source="IOi2zT9lRNZSFX4Smpka-5">
          <mxGeometry relative="1" as="geometry">
            <mxPoint x="332" y="-1060" as="targetPoint" />
          </mxGeometry>
        </mxCell>
        <mxCell id="IOi2zT9lRNZSFX4Smpka-5" value="Початок програми" style="strokeWidth=2;html=1;shape=mxgraph.flowchart.terminator;whiteSpace=wrap;" parent="1" vertex="1">
          <mxGeometry x="262" y="-1169" width="140" height="70" as="geometry" />
        </mxCell>
        <mxCell id="kRywIsPJXTSg0KDeLOMC-10" value="" style="edgeStyle=orthogonalEdgeStyle;rounded=0;orthogonalLoop=1;jettySize=auto;html=1;endArrow=none;startFill=0;exitX=0;exitY=0.5;exitDx=0;exitDy=0;" edge="1" parent="1" source="kRywIsPJXTSg0KDeLOMC-7" target="kRywIsPJXTSg0KDeLOMC-9">
          <mxGeometry relative="1" as="geometry">
            <mxPoint x="248.5" y="-960" as="sourcePoint" />
          </mxGeometry>
        </mxCell>
        <mxCell id="kRywIsPJXTSg0KDeLOMC-277" value="Ні" style="edgeLabel;html=1;align=center;verticalAlign=middle;resizable=0;points=[];" vertex="1" connectable="0" parent="kRywIsPJXTSg0KDeLOMC-10">
          <mxGeometry x="0.8128" y="2" relative="1" as="geometry">
            <mxPoint as="offset" />
          </mxGeometry>
        </mxCell>
        <mxCell id="kRywIsPJXTSg0KDeLOMC-7" value="Створення лінійного двох зв’язного списку за допомогою&lt;div&gt;createTwoSidedMallocList()&lt;/div&gt;" style="rounded=0;whiteSpace=wrap;html=1;" vertex="1" parent="1">
          <mxGeometry x="237" y="-1070" width="190" height="60" as="geometry" />
        </mxCell>
        <mxCell id="kRywIsPJXTSg0KDeLOMC-13" value="" style="edgeStyle=orthogonalEdgeStyle;rounded=0;orthogonalLoop=1;jettySize=auto;html=1;" edge="1" parent="1" source="kRywIsPJXTSg0KDeLOMC-9">
          <mxGeometry relative="1" as="geometry">
            <mxPoint x="105" y="-728" as="targetPoint" />
          </mxGeometry>
        </mxCell>
        <mxCell id="kRywIsPJXTSg0KDeLOMC-9" value="За допомогою append(List* list, int data)&amp;nbsp;&lt;div&gt;додаємо в список цифри 1, 2, 3, 2, 4, 2, 5&lt;/div&gt;" style="whiteSpace=wrap;html=1;rounded=0;" vertex="1" parent="1">
          <mxGeometry x="10" y="-818" width="190" height="60" as="geometry" />
        </mxCell>
        <mxCell id="kRywIsPJXTSg0KDeLOMC-28" value="" style="edgeStyle=orthogonalEdgeStyle;rounded=0;orthogonalLoop=1;jettySize=auto;html=1;endArrow=none;startFill=0;" edge="1" parent="1" source="kRywIsPJXTSg0KDeLOMC-15" target="kRywIsPJXTSg0KDeLOMC-16">
          <mxGeometry relative="1" as="geometry" />
        </mxCell>
        <mxCell id="kRywIsPJXTSg0KDeLOMC-15" value="За допомогою&amp;nbsp;&lt;div&gt;printList(List* list)&amp;nbsp;&lt;div&gt;виводимо створений&amp;nbsp;&lt;/div&gt;&lt;div&gt;список&lt;/div&gt;&lt;/div&gt;" style="shape=parallelogram;html=1;strokeWidth=2;perimeter=parallelogramPerimeter;whiteSpace=wrap;rounded=1;arcSize=12;size=0.23;" vertex="1" parent="1">
          <mxGeometry x="-8.5" y="-738" width="220" height="90" as="geometry" />
        </mxCell>
        <mxCell id="kRywIsPJXTSg0KDeLOMC-30" value="" style="edgeStyle=orthogonalEdgeStyle;rounded=0;orthogonalLoop=1;jettySize=auto;html=1;endArrow=none;startFill=0;" edge="1" parent="1" source="kRywIsPJXTSg0KDeLOMC-16" target="kRywIsPJXTSg0KDeLOMC-18">
          <mxGeometry relative="1" as="geometry" />
        </mxCell>
        <mxCell id="kRywIsPJXTSg0KDeLOMC-16" value="int elementToDouble = 2" style="rounded=0;whiteSpace=wrap;html=1;" vertex="1" parent="1">
          <mxGeometry x="11.5" y="-618" width="180" height="60" as="geometry" />
        </mxCell>
        <mxCell id="kRywIsPJXTSg0KDeLOMC-25" value="" style="edgeStyle=orthogonalEdgeStyle;rounded=0;orthogonalLoop=1;jettySize=auto;html=1;endArrow=none;startFill=0;" edge="1" parent="1" source="kRywIsPJXTSg0KDeLOMC-18" target="kRywIsPJXTSg0KDeLOMC-24">
          <mxGeometry relative="1" as="geometry" />
        </mxCell>
        <mxCell id="kRywIsPJXTSg0KDeLOMC-18" value="Використовуючи&lt;div&gt;doubleElement(List* list, int element)&amp;nbsp;&lt;/div&gt;&lt;div&gt;вказуємо element як значення елементу в списку, що має дублюватися&lt;/div&gt;" style="whiteSpace=wrap;html=1;rounded=0;" vertex="1" parent="1">
          <mxGeometry x="3" y="-528" width="197" height="86" as="geometry" />
        </mxCell>
        <mxCell id="kRywIsPJXTSg0KDeLOMC-32" value="" style="edgeStyle=orthogonalEdgeStyle;rounded=0;orthogonalLoop=1;jettySize=auto;html=1;endArrow=none;startFill=0;" edge="1" parent="1" source="kRywIsPJXTSg0KDeLOMC-24" target="kRywIsPJXTSg0KDeLOMC-31">
          <mxGeometry relative="1" as="geometry" />
        </mxCell>
        <mxCell id="kRywIsPJXTSg0KDeLOMC-24" value="За допомогою&amp;nbsp;&lt;div&gt;printList(List* list)&amp;nbsp;&lt;div&gt;виводимо&amp;nbsp;&lt;/div&gt;&lt;div&gt;список з дублованим&amp;nbsp;&lt;/div&gt;&lt;div&gt;елементом&lt;/div&gt;&lt;/div&gt;" style="shape=parallelogram;html=1;strokeWidth=2;perimeter=parallelogramPerimeter;whiteSpace=wrap;rounded=1;arcSize=12;size=0.23;" vertex="1" parent="1">
          <mxGeometry x="-8.5" y="-408" width="220" height="90" as="geometry" />
        </mxCell>
        <mxCell id="kRywIsPJXTSg0KDeLOMC-35" value="" style="edgeStyle=orthogonalEdgeStyle;rounded=0;orthogonalLoop=1;jettySize=auto;html=1;endArrow=none;startFill=0;" edge="1" parent="1" source="kRywIsPJXTSg0KDeLOMC-31" target="kRywIsPJXTSg0KDeLOMC-34">
          <mxGeometry relative="1" as="geometry" />
        </mxCell>
        <mxCell id="kRywIsPJXTSg0KDeLOMC-31" value="Видаляємо список за допомогою freeList(List* list*)" style="whiteSpace=wrap;html=1;rounded=0;" vertex="1" parent="1">
          <mxGeometry x="3" y="-288" width="197" height="86" as="geometry" />
        </mxCell>
        <mxCell id="kRywIsPJXTSg0KDeLOMC-34" value="Кінець програми" style="strokeWidth=2;html=1;shape=mxgraph.flowchart.terminator;whiteSpace=wrap;" vertex="1" parent="1">
          <mxGeometry x="31.5" y="-168" width="140" height="70" as="geometry" />
        </mxCell>
        <mxCell id="kRywIsPJXTSg0KDeLOMC-65" value="" style="edgeStyle=orthogonalEdgeStyle;rounded=0;orthogonalLoop=1;jettySize=auto;html=1;" edge="1" parent="1" source="kRywIsPJXTSg0KDeLOMC-54" target="kRywIsPJXTSg0KDeLOMC-63">
          <mxGeometry relative="1" as="geometry" />
        </mxCell>
        <mxCell id="kRywIsPJXTSg0KDeLOMC-54" value="Початок програми" style="strokeWidth=2;html=1;shape=mxgraph.flowchart.terminator;whiteSpace=wrap;" vertex="1" parent="1">
          <mxGeometry x="-915" y="-1100" width="100" height="60" as="geometry" />
        </mxCell>
        <mxCell id="kRywIsPJXTSg0KDeLOMC-55" value="" style="strokeWidth=2;html=1;shape=mxgraph.flowchart.annotation_2;align=left;labelPosition=right;pointerEvents=1;" vertex="1" parent="1">
          <mxGeometry x="-720" y="-1120" width="50" height="100" as="geometry" />
        </mxCell>
        <mxCell id="kRywIsPJXTSg0KDeLOMC-56" value="&lt;font style=&quot;font-size: 16px;&quot;&gt;List* createTwoSidedMallocList()&lt;/font&gt;" style="text;html=1;align=center;verticalAlign=middle;whiteSpace=wrap;rounded=0;fontSize=15;" vertex="1" parent="1">
          <mxGeometry x="-709.5" y="-1130" width="340" height="30" as="geometry" />
        </mxCell>
        <mxCell id="kRywIsPJXTSg0KDeLOMC-57" value="&lt;span style=&quot;font-size: 14px;&quot;&gt;// створює дво зв&#39;язний список&lt;/span&gt;" style="text;html=1;align=center;verticalAlign=middle;whiteSpace=wrap;rounded=0;" vertex="1" parent="1">
          <mxGeometry x="-739.5" y="-1080" width="340" height="30" as="geometry" />
        </mxCell>
        <mxCell id="kRywIsPJXTSg0KDeLOMC-62" value="" style="edgeStyle=orthogonalEdgeStyle;rounded=0;orthogonalLoop=1;jettySize=auto;html=1;endArrow=none;startFill=0;" edge="1" parent="1" source="kRywIsPJXTSg0KDeLOMC-63" target="kRywIsPJXTSg0KDeLOMC-64">
          <mxGeometry relative="1" as="geometry" />
        </mxCell>
        <mxCell id="kRywIsPJXTSg0KDeLOMC-99" value="Ні" style="edgeLabel;html=1;align=center;verticalAlign=middle;resizable=0;points=[];" vertex="1" connectable="0" parent="kRywIsPJXTSg0KDeLOMC-62">
          <mxGeometry x="0.8191" y="2" relative="1" as="geometry">
            <mxPoint as="offset" />
          </mxGeometry>
        </mxCell>
        <mxCell id="kRywIsPJXTSg0KDeLOMC-63" value="Створюємо звичайний динамічний список за домогою malloc" style="rounded=0;whiteSpace=wrap;html=1;" vertex="1" parent="1">
          <mxGeometry x="-960" y="-1001" width="190" height="60" as="geometry" />
        </mxCell>
        <mxCell id="kRywIsPJXTSg0KDeLOMC-69" value="" style="edgeStyle=orthogonalEdgeStyle;rounded=0;orthogonalLoop=1;jettySize=auto;html=1;endArrow=none;startFill=0;" edge="1" parent="1" source="kRywIsPJXTSg0KDeLOMC-64" target="kRywIsPJXTSg0KDeLOMC-68">
          <mxGeometry relative="1" as="geometry" />
        </mxCell>
        <mxCell id="kRywIsPJXTSg0KDeLOMC-64" value="&lt;div&gt;newList-&amp;gt;head = NULL;&lt;/div&gt;&lt;div&gt;&amp;nbsp; &amp;nbsp; newList-&amp;gt;tail = NULL;&lt;/div&gt;" style="whiteSpace=wrap;html=1;rounded=0;" vertex="1" parent="1">
          <mxGeometry x="-960" y="-559" width="190" height="60" as="geometry" />
        </mxCell>
        <mxCell id="kRywIsPJXTSg0KDeLOMC-71" value="" style="edgeStyle=orthogonalEdgeStyle;rounded=0;orthogonalLoop=1;jettySize=auto;html=1;" edge="1" parent="1" source="kRywIsPJXTSg0KDeLOMC-68" target="kRywIsPJXTSg0KDeLOMC-70">
          <mxGeometry relative="1" as="geometry" />
        </mxCell>
        <mxCell id="kRywIsPJXTSg0KDeLOMC-68" value="Повертаємо newList" style="whiteSpace=wrap;html=1;rounded=0;" vertex="1" parent="1">
          <mxGeometry x="-960" y="-460" width="190" height="60" as="geometry" />
        </mxCell>
        <mxCell id="kRywIsPJXTSg0KDeLOMC-70" value="Кінець&amp;nbsp;&lt;div&gt;програми&lt;/div&gt;" style="strokeWidth=2;html=1;shape=mxgraph.flowchart.terminator;whiteSpace=wrap;" vertex="1" parent="1">
          <mxGeometry x="-915" y="-370" width="100" height="60" as="geometry" />
        </mxCell>
        <mxCell id="kRywIsPJXTSg0KDeLOMC-174" style="edgeStyle=orthogonalEdgeStyle;rounded=0;orthogonalLoop=1;jettySize=auto;html=1;" edge="1" parent="1" source="kRywIsPJXTSg0KDeLOMC-73" target="kRywIsPJXTSg0KDeLOMC-84">
          <mxGeometry relative="1" as="geometry" />
        </mxCell>
        <mxCell id="kRywIsPJXTSg0KDeLOMC-73" value="Початок програми" style="strokeWidth=2;html=1;shape=mxgraph.flowchart.terminator;whiteSpace=wrap;" vertex="1" parent="1">
          <mxGeometry x="-869.75" y="-190" width="100" height="60" as="geometry" />
        </mxCell>
        <mxCell id="kRywIsPJXTSg0KDeLOMC-74" value="" style="strokeWidth=2;html=1;shape=mxgraph.flowchart.annotation_2;align=left;labelPosition=right;pointerEvents=1;" vertex="1" parent="1">
          <mxGeometry x="-674.75" y="-218" width="50" height="100" as="geometry" />
        </mxCell>
        <mxCell id="kRywIsPJXTSg0KDeLOMC-75" value="&lt;font style=&quot;font-size: 16px;&quot;&gt;void append(List* list, int data)&lt;/font&gt;&lt;div&gt;&lt;span style=&quot;font-size: 16px;&quot;&gt;// додає вузел до списку в кінець&lt;/span&gt;&lt;/div&gt;" style="text;html=1;align=center;verticalAlign=middle;whiteSpace=wrap;rounded=0;fontSize=15;" vertex="1" parent="1">
          <mxGeometry x="-654.25" y="-220" width="340" height="30" as="geometry" />
        </mxCell>
        <mxCell id="kRywIsPJXTSg0KDeLOMC-76" value="&lt;span style=&quot;font-size: 14px;&quot;&gt;// list - список&lt;/span&gt;&lt;div&gt;&lt;span style=&quot;font-size: 14px;&quot;&gt;// data - int число&lt;/span&gt;&lt;/div&gt;" style="text;html=1;align=center;verticalAlign=middle;whiteSpace=wrap;rounded=0;" vertex="1" parent="1">
          <mxGeometry x="-694.25" y="-178" width="340" height="30" as="geometry" />
        </mxCell>
        <mxCell id="kRywIsPJXTSg0KDeLOMC-77" value="" style="edgeStyle=orthogonalEdgeStyle;rounded=0;orthogonalLoop=1;jettySize=auto;html=1;endArrow=none;startFill=0;" edge="1" parent="1" target="kRywIsPJXTSg0KDeLOMC-80">
          <mxGeometry x="0.0009" relative="1" as="geometry">
            <mxPoint x="-819.75" y="-39" as="sourcePoint" />
            <mxPoint as="offset" />
          </mxGeometry>
        </mxCell>
        <mxCell id="kRywIsPJXTSg0KDeLOMC-104" value="Ні" style="edgeLabel;html=1;align=center;verticalAlign=middle;resizable=0;points=[];" vertex="1" connectable="0" parent="kRywIsPJXTSg0KDeLOMC-77">
          <mxGeometry x="0.8719" y="5" relative="1" as="geometry">
            <mxPoint y="1" as="offset" />
          </mxGeometry>
        </mxCell>
        <mxCell id="kRywIsPJXTSg0KDeLOMC-79" value="" style="edgeStyle=orthogonalEdgeStyle;rounded=0;orthogonalLoop=1;jettySize=auto;html=1;endArrow=none;startFill=0;" edge="1" parent="1" source="kRywIsPJXTSg0KDeLOMC-80">
          <mxGeometry relative="1" as="geometry">
            <mxPoint x="-819.75" y="542" as="targetPoint" />
          </mxGeometry>
        </mxCell>
        <mxCell id="kRywIsPJXTSg0KDeLOMC-80" value="&lt;div&gt;newNode-&amp;gt;data = data;&lt;/div&gt;&lt;div&gt;&amp;nbsp; &amp;nbsp; newNode-&amp;gt;next = NULL;&lt;/div&gt;" style="whiteSpace=wrap;html=1;rounded=0;" vertex="1" parent="1">
          <mxGeometry x="-914.75" y="372" width="190" height="60" as="geometry" />
        </mxCell>
        <mxCell id="kRywIsPJXTSg0KDeLOMC-81" value="" style="edgeStyle=orthogonalEdgeStyle;rounded=0;orthogonalLoop=1;jettySize=auto;html=1;" edge="1" parent="1" target="kRywIsPJXTSg0KDeLOMC-83">
          <mxGeometry relative="1" as="geometry">
            <mxPoint x="-819.75" y="702" as="sourcePoint" />
          </mxGeometry>
        </mxCell>
        <mxCell id="kRywIsPJXTSg0KDeLOMC-108" value="Так" style="edgeLabel;html=1;align=center;verticalAlign=middle;resizable=0;points=[];" vertex="1" connectable="0" parent="kRywIsPJXTSg0KDeLOMC-81">
          <mxGeometry x="-0.2667" y="-4" relative="1" as="geometry">
            <mxPoint x="4" y="-105" as="offset" />
          </mxGeometry>
        </mxCell>
        <mxCell id="kRywIsPJXTSg0KDeLOMC-83" value="Кінець&amp;nbsp;&lt;div&gt;програми&lt;/div&gt;" style="strokeWidth=2;html=1;shape=mxgraph.flowchart.terminator;whiteSpace=wrap;" vertex="1" parent="1">
          <mxGeometry x="-869.75" y="742" width="100" height="60" as="geometry" />
        </mxCell>
        <mxCell id="kRywIsPJXTSg0KDeLOMC-84" value="Виділяємо пам&#39;ять для нового вузла за допомогою malloc&lt;span style=&quot;color: rgba(0, 0, 0, 0); font-family: monospace; font-size: 0px; text-align: start; text-wrap-mode: nowrap;&quot;&gt;%3CmxGraphModel%3E%3Croot%3E%3CmxCell%20id%3D%220%22%2F%3E%3CmxCell%20id%3D%221%22%20parent%3D%220%22%2F%3E%3CmxCell%20id%3D%222%22%20value%3D%22%D0%A1%D1%82%D0%B2%D0%BE%D1%80%D1%8E%D1%94%D0%BC%D0%BE%20%D0%B7%D0%B2%D0%B8%D1%87%D0%B0%D0%B9%D0%BD%D0%B8%D0%B9%20%D0%B4%D0%B8%D0%BD%D0%B0%D0%BC%D1%96%D1%87%D0%BD%D0%B8%D0%B9%20%D1%81%D0%BF%D0%B8%D1%81%D0%BE%D0%BA%20%D0%B7%D0%B0%20%D0%B4%D0%BE%D0%BC%D0%BE%D0%B3%D0%BE%D1%8E%20malloc%22%20style%3D%22rounded%3D0%3BwhiteSpace%3Dwrap%3Bhtml%3D1%3B%22%20vertex%3D%221%22%20parent%3D%221%22%3E%3CmxGeometry%20x%3D%22-500.5%22%20y%3D%22-521%22%20width%3D%22190%22%20height%3D%2260%22%20as%3D%22geometry%22%2F%3E%3C%2FmxCell%3E%3C%2Froot%3E%3C%2FmxGraphModel%3E&lt;/span&gt;&lt;span style=&quot;color: rgba(0, 0, 0, 0); font-family: monospace; font-size: 0px; text-align: start; text-wrap-mode: nowrap;&quot;&gt;%3CmxGraphModel%3E%3Croot%3E%3CmxCell%20id%3D%220%22%2F%3E%3CmxCell%20id%3D%221%22%20parent%3D%220%22%2F%3E%3CmxCell%20id%3D%222%22%20value%3D%22%D0%A1%D1%82%D0%B2%D0%BE%D1%80%D1%8E%D1%94%D0%BC%D0%BE%20%D0%B7%D0%B2%D0%B8%D1%87%D0%B0%D0%B9%D0%BD%D0%B8%D0%B9%20%D0%B4%D0%B8%D0%BD%D0%B0%D0%BC%D1%96%D1%87%D0%BD%D0%B8%D0%B9%20%D1%81%D0%BF%D0%B8%D1%81%D0%BE%D0%BA%20%D0%B7%D0%B0%20%D0%B4%D0%BE%D0%BC%D0%BE%D0%B3%D0%BE%D1%8E%20malloc%22%20style%3D%22rounded%3D0%3BwhiteSpace%3Dwrap%3Bhtml%3D1%3B%22%20vertex%3D%221%22%20parent%3D%221%22%3E%3CmxGeometry%20x%3D%22-500.5%22%20y%3D%22-521%22%20width%3D%22190%22%20height%3D%2260%22%20as%3D%22geometry%22%2F%3E%3C%2FmxCell%3E%3C%2Froot%3E%3C%2FmxGraphModel%3E&lt;/span&gt;" style="rounded=0;whiteSpace=wrap;html=1;" vertex="1" parent="1">
          <mxGeometry x="-914.75" y="42" width="190" height="60" as="geometry" />
        </mxCell>
        <mxCell id="kRywIsPJXTSg0KDeLOMC-89" value="Так" style="edgeStyle=orthogonalEdgeStyle;rounded=0;orthogonalLoop=1;jettySize=auto;html=1;" edge="1" parent="1" source="kRywIsPJXTSg0KDeLOMC-86" target="kRywIsPJXTSg0KDeLOMC-88">
          <mxGeometry relative="1" as="geometry" />
        </mxCell>
        <mxCell id="kRywIsPJXTSg0KDeLOMC-86" value="Чи є помилка&lt;div&gt;в виділенні?&lt;/div&gt;" style="strokeWidth=2;html=1;shape=mxgraph.flowchart.decision;whiteSpace=wrap;" vertex="1" parent="1">
          <mxGeometry x="-875.75" y="192.00000000000006" width="112" height="110" as="geometry" />
        </mxCell>
        <mxCell id="kRywIsPJXTSg0KDeLOMC-91" style="edgeStyle=orthogonalEdgeStyle;rounded=0;orthogonalLoop=1;jettySize=auto;html=1;entryX=1;entryY=0.5;entryDx=0;entryDy=0;entryPerimeter=0;" edge="1" parent="1" source="kRywIsPJXTSg0KDeLOMC-88" target="kRywIsPJXTSg0KDeLOMC-83">
          <mxGeometry relative="1" as="geometry">
            <mxPoint x="-744.25" y="542" as="targetPoint" />
            <Array as="points">
              <mxPoint x="-354.25" y="772" />
            </Array>
          </mxGeometry>
        </mxCell>
        <mxCell id="kRywIsPJXTSg0KDeLOMC-88" value="Append error" style="shape=parallelogram;html=1;strokeWidth=2;perimeter=parallelogramPerimeter;whiteSpace=wrap;rounded=1;arcSize=12;size=0.23;" vertex="1" parent="1">
          <mxGeometry x="-454.25" y="262" width="220" height="90" as="geometry" />
        </mxCell>
        <mxCell id="kRywIsPJXTSg0KDeLOMC-94" value="Виділяємо пам&#39;ять за допомогою malloc&lt;span style=&quot;color: rgba(0, 0, 0, 0); font-family: monospace; font-size: 0px; text-align: start; text-wrap-mode: nowrap;&quot;&gt;%3CmxGraphModel%3E%3Croot%3E%3CmxCell%20id%3D%220%22%2F%3E%3CmxCell%20id%3D%221%22%20parent%3D%220%22%2F%3E%3CmxCell%20id%3D%222%22%20value%3D%22%D0%A1%D1%82%D0%B2%D0%BE%D1%80%D1%8E%D1%94%D0%BC%D0%BE%20%D0%B7%D0%B2%D0%B8%D1%87%D0%B0%D0%B9%D0%BD%D0%B8%D0%B9%20%D0%B4%D0%B8%D0%BD%D0%B0%D0%BC%D1%96%D1%87%D0%BD%D0%B8%D0%B9%20%D1%81%D0%BF%D0%B8%D1%81%D0%BE%D0%BA%20%D0%B7%D0%B0%20%D0%B4%D0%BE%D0%BC%D0%BE%D0%B3%D0%BE%D1%8E%20malloc%22%20style%3D%22rounded%3D0%3BwhiteSpace%3Dwrap%3Bhtml%3D1%3B%22%20vertex%3D%221%22%20parent%3D%221%22%3E%3CmxGeometry%20x%3D%22-500.5%22%20y%3D%22-521%22%20width%3D%22190%22%20height%3D%2260%22%20as%3D%22geometry%22%2F%3E%3C%2FmxCell%3E%3C%2Froot%3E%3C%2FmxGraphModel%3E&lt;/span&gt;&lt;span style=&quot;color: rgba(0, 0, 0, 0); font-family: monospace; font-size: 0px; text-align: start; text-wrap-mode: nowrap;&quot;&gt;%3CmxGraphModel%3E%3Croot%3E%3CmxCell%20id%3D%220%22%2F%3E%3CmxCell%20id%3D%221%22%20parent%3D%220%22%2F%3E%3CmxCell%20id%3D%222%22%20value%3D%22%D0%A1%D1%82%D0%B2%D0%BE%D1%80%D1%8E%D1%94%D0%BC%D0%BE%20%D0%B7%D0%B2%D0%B8%D1%87%D0%B0%D0%B9%D0%BD%D0%B8%D0%B9%20%D0%B4%D0%B8%D0%BD%D0%B0%D0%BC%D1%96%D1%87%D0%BD%D0%B8%D0%B9%20%D1%81%D0%BF%D0%B8%D1%81%D0%BE%D0%BA%20%D0%B7%D0%B0%20%D0%B4%D0%BE%D0%BC%D0%BE%D0%B3%D0%BE%D1%8E%20malloc%22%20style%3D%22rounded%3D0%3BwhiteSpace%3Dwrap%3Bhtml%3D1%3B%22%20vertex%3D%221%22%20parent%3D%221%22%3E%3CmxGeometry%20x%3D%22-500.5%22%20y%3D%22-521%22%20width%3D%22190%22%20height%3D%2260%22%20as%3D%22geometry%22%2F%3E%3C%2FmxCell%3E%3C%2Froot%3E%3C%2FmxGraphModel%3E&lt;/span&gt;" style="rounded=0;whiteSpace=wrap;html=1;" vertex="1" parent="1">
          <mxGeometry x="-960" y="-865" width="190" height="60" as="geometry" />
        </mxCell>
        <mxCell id="kRywIsPJXTSg0KDeLOMC-96" value="Так" style="edgeStyle=orthogonalEdgeStyle;rounded=0;orthogonalLoop=1;jettySize=auto;html=1;" edge="1" parent="1" source="kRywIsPJXTSg0KDeLOMC-97" target="kRywIsPJXTSg0KDeLOMC-98">
          <mxGeometry relative="1" as="geometry" />
        </mxCell>
        <mxCell id="kRywIsPJXTSg0KDeLOMC-97" value="Чи є помилка&lt;div&gt;в виділенні?&lt;/div&gt;" style="strokeWidth=2;html=1;shape=mxgraph.flowchart.decision;whiteSpace=wrap;" vertex="1" parent="1">
          <mxGeometry x="-921" y="-740" width="112" height="110" as="geometry" />
        </mxCell>
        <mxCell id="kRywIsPJXTSg0KDeLOMC-98" value="Malloc error!" style="shape=parallelogram;html=1;strokeWidth=2;perimeter=parallelogramPerimeter;whiteSpace=wrap;rounded=1;arcSize=12;size=0.23;" vertex="1" parent="1">
          <mxGeometry x="-728" y="-730" width="220" height="90" as="geometry" />
        </mxCell>
        <mxCell id="kRywIsPJXTSg0KDeLOMC-103" value="" style="edgeStyle=elbowEdgeStyle;elbow=vertical;endArrow=classic;html=1;curved=0;rounded=0;endSize=8;startSize=8;exitX=0.5;exitY=1;exitDx=0;exitDy=0;entryX=1;entryY=0.5;entryDx=0;entryDy=0;entryPerimeter=0;" edge="1" parent="1" source="kRywIsPJXTSg0KDeLOMC-98" target="kRywIsPJXTSg0KDeLOMC-70">
          <mxGeometry width="50" height="50" relative="1" as="geometry">
            <mxPoint x="-650" y="-490" as="sourcePoint" />
            <mxPoint x="-600" y="-540" as="targetPoint" />
            <Array as="points">
              <mxPoint x="-700" y="-340" />
            </Array>
          </mxGeometry>
        </mxCell>
        <mxCell id="kRywIsPJXTSg0KDeLOMC-110" value="" style="edgeStyle=orthogonalEdgeStyle;rounded=0;orthogonalLoop=1;jettySize=auto;html=1;" edge="1" parent="1" source="kRywIsPJXTSg0KDeLOMC-107" target="kRywIsPJXTSg0KDeLOMC-109">
          <mxGeometry relative="1" as="geometry" />
        </mxCell>
        <mxCell id="kRywIsPJXTSg0KDeLOMC-116" value="Ні" style="edgeLabel;html=1;align=center;verticalAlign=middle;resizable=0;points=[];" vertex="1" connectable="0" parent="kRywIsPJXTSg0KDeLOMC-110">
          <mxGeometry x="-0.37" y="-3" relative="1" as="geometry">
            <mxPoint as="offset" />
          </mxGeometry>
        </mxCell>
        <mxCell id="kRywIsPJXTSg0KDeLOMC-107" value="list-&amp;gt;head&amp;nbsp;&lt;div&gt;== NULL?&lt;/div&gt;" style="strokeWidth=2;html=1;shape=mxgraph.flowchart.decision;whiteSpace=wrap;" vertex="1" parent="1">
          <mxGeometry x="-875.75" y="482.00000000000006" width="112" height="110" as="geometry" />
        </mxCell>
        <mxCell id="kRywIsPJXTSg0KDeLOMC-109" value="&lt;div&gt;newNode-&amp;gt;prev = list-&amp;gt;tail;&lt;/div&gt;&lt;div&gt;list-&amp;gt;tail-&amp;gt;next = newNode;&lt;/div&gt;&lt;div&gt;list-&amp;gt;tail = newNode;&lt;/div&gt;" style="whiteSpace=wrap;html=1;strokeWidth=2;align=center;" vertex="1" parent="1">
          <mxGeometry x="-674.75" y="509.5" width="220.5" height="55" as="geometry" />
        </mxCell>
        <mxCell id="kRywIsPJXTSg0KDeLOMC-113" value="" style="endArrow=classic;html=1;rounded=0;exitX=0.5;exitY=1;exitDx=0;exitDy=0;endFill=1;" edge="1" parent="1" source="kRywIsPJXTSg0KDeLOMC-109">
          <mxGeometry width="50" height="50" relative="1" as="geometry">
            <mxPoint x="-934.25" y="592" as="sourcePoint" />
            <mxPoint x="-564.25" y="772" as="targetPoint" />
          </mxGeometry>
        </mxCell>
        <mxCell id="kRywIsPJXTSg0KDeLOMC-115" value="" style="endArrow=none;html=1;rounded=0;exitX=0.5;exitY=0;exitDx=0;exitDy=0;exitPerimeter=0;" edge="1" parent="1" source="kRywIsPJXTSg0KDeLOMC-83">
          <mxGeometry width="50" height="50" relative="1" as="geometry">
            <mxPoint x="-869.75" y="642" as="sourcePoint" />
            <mxPoint x="-819.75" y="592" as="targetPoint" />
          </mxGeometry>
        </mxCell>
        <mxCell id="kRywIsPJXTSg0KDeLOMC-114" value="&lt;div&gt;newNode-&amp;gt;prev = NULL;&lt;/div&gt;&lt;div&gt;&lt;span style=&quot;background-color: transparent; color: light-dark(rgb(0, 0, 0), rgb(255, 255, 255));&quot;&gt;list-&amp;gt;head = newNode;&lt;/span&gt;&lt;/div&gt;&lt;div&gt;&amp;nbsp; list-&amp;gt;tail = newNode;&lt;/div&gt;" style="whiteSpace=wrap;html=1;strokeWidth=2;align=center;" vertex="1" parent="1">
          <mxGeometry x="-930" y="642" width="220.5" height="55" as="geometry" />
        </mxCell>
        <mxCell id="kRywIsPJXTSg0KDeLOMC-117" value="" style="edgeStyle=orthogonalEdgeStyle;rounded=0;orthogonalLoop=1;jettySize=auto;html=1;" edge="1" parent="1" source="kRywIsPJXTSg0KDeLOMC-118">
          <mxGeometry relative="1" as="geometry">
            <mxPoint x="120.28571428571468" y="222" as="targetPoint" />
          </mxGeometry>
        </mxCell>
        <mxCell id="kRywIsPJXTSg0KDeLOMC-118" value="Початок програми" style="strokeWidth=2;html=1;shape=mxgraph.flowchart.terminator;whiteSpace=wrap;" vertex="1" parent="1">
          <mxGeometry x="70.25" y="123" width="100" height="60" as="geometry" />
        </mxCell>
        <mxCell id="kRywIsPJXTSg0KDeLOMC-119" value="" style="strokeWidth=2;html=1;shape=mxgraph.flowchart.annotation_2;align=left;labelPosition=right;pointerEvents=1;" vertex="1" parent="1">
          <mxGeometry x="190" y="102" width="50" height="100" as="geometry" />
        </mxCell>
        <mxCell id="kRywIsPJXTSg0KDeLOMC-120" value="&lt;span style=&quot;font-size: 16px;&quot;&gt;void printList(List* list)&amp;nbsp;&lt;/span&gt;&lt;div&gt;&lt;span style=&quot;font-size: 16px;&quot;&gt;// виводить список&lt;/span&gt;&lt;/div&gt;" style="text;html=1;align=center;verticalAlign=middle;whiteSpace=wrap;rounded=0;fontSize=15;" vertex="1" parent="1">
          <mxGeometry x="190" y="107" width="340" height="30" as="geometry" />
        </mxCell>
        <mxCell id="kRywIsPJXTSg0KDeLOMC-121" value="&lt;span style=&quot;font-size: 14px;&quot;&gt;// list - список&lt;/span&gt;" style="text;html=1;align=center;verticalAlign=middle;whiteSpace=wrap;rounded=0;" vertex="1" parent="1">
          <mxGeometry x="190" y="142" width="340" height="30" as="geometry" />
        </mxCell>
        <mxCell id="kRywIsPJXTSg0KDeLOMC-125" value="" style="edgeStyle=orthogonalEdgeStyle;rounded=0;orthogonalLoop=1;jettySize=auto;html=1;endArrow=none;startFill=0;" edge="1" parent="1" source="kRywIsPJXTSg0KDeLOMC-126">
          <mxGeometry relative="1" as="geometry">
            <mxPoint x="120.25" y="572" as="targetPoint" />
          </mxGeometry>
        </mxCell>
        <mxCell id="kRywIsPJXTSg0KDeLOMC-126" value="Node* current = list-&amp;gt;head;" style="whiteSpace=wrap;html=1;rounded=0;" vertex="1" parent="1">
          <mxGeometry x="25.25" y="372" width="190" height="60" as="geometry" />
        </mxCell>
        <mxCell id="kRywIsPJXTSg0KDeLOMC-153" value="" style="edgeStyle=orthogonalEdgeStyle;rounded=0;orthogonalLoop=1;jettySize=auto;html=1;endArrow=none;startFill=0;" edge="1" parent="1" source="kRywIsPJXTSg0KDeLOMC-129" target="kRywIsPJXTSg0KDeLOMC-150">
          <mxGeometry relative="1" as="geometry" />
        </mxCell>
        <mxCell id="kRywIsPJXTSg0KDeLOMC-129" value="Кінець&amp;nbsp;&lt;div&gt;програми&lt;/div&gt;" style="strokeWidth=2;html=1;shape=mxgraph.flowchart.terminator;whiteSpace=wrap;" vertex="1" parent="1">
          <mxGeometry x="76.25" y="1080" width="100" height="60" as="geometry" />
        </mxCell>
        <mxCell id="kRywIsPJXTSg0KDeLOMC-131" value="Так" style="edgeStyle=orthogonalEdgeStyle;rounded=0;orthogonalLoop=1;jettySize=auto;html=1;" edge="1" parent="1" source="kRywIsPJXTSg0KDeLOMC-132" target="kRywIsPJXTSg0KDeLOMC-134">
          <mxGeometry relative="1" as="geometry" />
        </mxCell>
        <mxCell id="kRywIsPJXTSg0KDeLOMC-142" value="" style="edgeStyle=orthogonalEdgeStyle;rounded=0;orthogonalLoop=1;jettySize=auto;html=1;endArrow=none;startFill=0;" edge="1" parent="1" source="kRywIsPJXTSg0KDeLOMC-132" target="kRywIsPJXTSg0KDeLOMC-126">
          <mxGeometry relative="1" as="geometry">
            <Array as="points">
              <mxPoint x="120" y="320" />
              <mxPoint x="120" y="320" />
            </Array>
          </mxGeometry>
        </mxCell>
        <mxCell id="kRywIsPJXTSg0KDeLOMC-144" value="Ні" style="edgeLabel;html=1;align=center;verticalAlign=middle;resizable=0;points=[];" vertex="1" connectable="0" parent="kRywIsPJXTSg0KDeLOMC-142">
          <mxGeometry x="0.032" relative="1" as="geometry">
            <mxPoint y="1" as="offset" />
          </mxGeometry>
        </mxCell>
        <mxCell id="kRywIsPJXTSg0KDeLOMC-132" value="list-&amp;gt;head == NULL?" style="strokeWidth=2;html=1;shape=mxgraph.flowchart.decision;whiteSpace=wrap;" vertex="1" parent="1">
          <mxGeometry x="64.25" y="222.00000000000006" width="112" height="110" as="geometry" />
        </mxCell>
        <mxCell id="kRywIsPJXTSg0KDeLOMC-133" style="edgeStyle=orthogonalEdgeStyle;rounded=0;orthogonalLoop=1;jettySize=auto;html=1;entryX=1;entryY=0.5;entryDx=0;entryDy=0;entryPerimeter=0;" edge="1" parent="1" source="kRywIsPJXTSg0KDeLOMC-134" target="kRywIsPJXTSg0KDeLOMC-129">
          <mxGeometry relative="1" as="geometry">
            <mxPoint x="195.75" y="572" as="targetPoint" />
            <Array as="points">
              <mxPoint x="440" y="1110" />
            </Array>
          </mxGeometry>
        </mxCell>
        <mxCell id="kRywIsPJXTSg0KDeLOMC-134" value="Empty list" style="shape=parallelogram;html=1;strokeWidth=2;perimeter=parallelogramPerimeter;whiteSpace=wrap;rounded=1;arcSize=12;size=0.23;" vertex="1" parent="1">
          <mxGeometry x="330" y="232" width="220" height="90" as="geometry" />
        </mxCell>
        <mxCell id="kRywIsPJXTSg0KDeLOMC-145" value="List:" style="shape=parallelogram;html=1;strokeWidth=2;perimeter=parallelogramPerimeter;whiteSpace=wrap;rounded=1;arcSize=12;size=0.23;" vertex="1" parent="1">
          <mxGeometry x="10.25" y="502" width="220" height="90" as="geometry" />
        </mxCell>
        <mxCell id="kRywIsPJXTSg0KDeLOMC-147" value="" style="edgeStyle=orthogonalEdgeStyle;rounded=0;orthogonalLoop=1;jettySize=auto;html=1;endArrow=none;startFill=0;" edge="1" parent="1" source="kRywIsPJXTSg0KDeLOMC-146" target="kRywIsPJXTSg0KDeLOMC-145">
          <mxGeometry relative="1" as="geometry" />
        </mxCell>
        <mxCell id="kRywIsPJXTSg0KDeLOMC-149" value="" style="edgeStyle=orthogonalEdgeStyle;rounded=0;orthogonalLoop=1;jettySize=auto;html=1;endArrow=none;startFill=0;" edge="1" parent="1" source="kRywIsPJXTSg0KDeLOMC-146" target="kRywIsPJXTSg0KDeLOMC-148">
          <mxGeometry relative="1" as="geometry" />
        </mxCell>
        <mxCell id="kRywIsPJXTSg0KDeLOMC-146" value="Цикл поки current != NULL" style="strokeWidth=2;html=1;shape=mxgraph.flowchart.loop_limit;whiteSpace=wrap;" vertex="1" parent="1">
          <mxGeometry x="70.25" y="630" width="100" height="60" as="geometry" />
        </mxCell>
        <mxCell id="kRywIsPJXTSg0KDeLOMC-148" value="current-&amp;gt;data" style="shape=parallelogram;html=1;strokeWidth=2;perimeter=parallelogramPerimeter;whiteSpace=wrap;rounded=1;arcSize=12;size=0.23;" vertex="1" parent="1">
          <mxGeometry x="10" y="727" width="220" height="90" as="geometry" />
        </mxCell>
        <mxCell id="kRywIsPJXTSg0KDeLOMC-152" value="" style="edgeStyle=orthogonalEdgeStyle;rounded=0;orthogonalLoop=1;jettySize=auto;html=1;endArrow=none;startFill=0;" edge="1" parent="1" source="kRywIsPJXTSg0KDeLOMC-150" target="kRywIsPJXTSg0KDeLOMC-148">
          <mxGeometry relative="1" as="geometry" />
        </mxCell>
        <mxCell id="kRywIsPJXTSg0KDeLOMC-150" value="&lt;font face=&quot;Verdana&quot;&gt;current = current-&amp;gt;next&lt;/font&gt;" style="whiteSpace=wrap;html=1;rounded=0;" vertex="1" parent="1">
          <mxGeometry x="25.25" y="850" width="190" height="60" as="geometry" />
        </mxCell>
        <mxCell id="kRywIsPJXTSg0KDeLOMC-154" value="" style="strokeWidth=2;shape=mxgraph.flowchart.loop_limit;whiteSpace=wrap;rotation=-180;horizontal=1;verticalAlign=middle;" vertex="1" parent="1">
          <mxGeometry x="70.25" y="960" width="100" height="60" as="geometry" />
        </mxCell>
        <mxCell id="kRywIsPJXTSg0KDeLOMC-155" value="Цикл поки&amp;nbsp;&lt;div&gt;current !=&amp;nbsp;&lt;span style=&quot;background-color: transparent; color: light-dark(rgb(0, 0, 0), rgb(255, 255, 255));&quot;&gt;NULL&lt;/span&gt;&lt;/div&gt;" style="text;whiteSpace=wrap;html=1;align=center;" vertex="1" parent="1">
          <mxGeometry x="45.25" y="970" width="150" height="40" as="geometry" />
        </mxCell>
        <mxCell id="kRywIsPJXTSg0KDeLOMC-194" value="" style="endArrow=none;html=1;rounded=0;exitX=0.5;exitY=1;exitDx=0;exitDy=0;exitPerimeter=0;entryX=0.5;entryY=1;entryDx=0;entryDy=0;entryPerimeter=0;startFill=0;" edge="1" parent="1" source="kRywIsPJXTSg0KDeLOMC-193">
          <mxGeometry width="50" height="50" relative="1" as="geometry">
            <mxPoint x="1115" y="-730" as="sourcePoint" />
            <mxPoint x="1160" y="-550" as="targetPoint" />
          </mxGeometry>
        </mxCell>
        <mxCell id="kRywIsPJXTSg0KDeLOMC-195" value="Так" style="edgeLabel;html=1;align=center;verticalAlign=middle;resizable=0;points=[];" vertex="1" connectable="0" parent="kRywIsPJXTSg0KDeLOMC-194">
          <mxGeometry x="-0.6891" y="-2" relative="1" as="geometry">
            <mxPoint as="offset" />
          </mxGeometry>
        </mxCell>
        <mxCell id="kRywIsPJXTSg0KDeLOMC-197" value="" style="edgeStyle=orthogonalEdgeStyle;rounded=0;orthogonalLoop=1;jettySize=auto;html=1;endArrow=none;startFill=0;" edge="1" parent="1" source="kRywIsPJXTSg0KDeLOMC-198" target="kRywIsPJXTSg0KDeLOMC-193">
          <mxGeometry relative="1" as="geometry" />
        </mxCell>
        <mxCell id="kRywIsPJXTSg0KDeLOMC-240" value="Ні" style="edgeLabel;html=1;align=center;verticalAlign=middle;resizable=0;points=[];" vertex="1" connectable="0" parent="kRywIsPJXTSg0KDeLOMC-197">
          <mxGeometry x="0.1845" y="-4" relative="1" as="geometry">
            <mxPoint as="offset" />
          </mxGeometry>
        </mxCell>
        <mxCell id="kRywIsPJXTSg0KDeLOMC-198" value="current = current-&amp;gt;next" style="whiteSpace=wrap;html=1;rounded=0;" vertex="1" parent="1">
          <mxGeometry x="1790" y="-868" width="197" height="86" as="geometry" />
        </mxCell>
        <mxCell id="kRywIsPJXTSg0KDeLOMC-201" value="" style="edgeStyle=elbowEdgeStyle;elbow=vertical;endArrow=classic;html=1;curved=0;rounded=0;endSize=8;startSize=8;exitX=0.5;exitY=1;exitDx=0;exitDy=0;" edge="1" parent="1" source="kRywIsPJXTSg0KDeLOMC-198">
          <mxGeometry width="50" height="50" relative="1" as="geometry">
            <mxPoint x="1425" y="-640" as="sourcePoint" />
            <mxPoint x="1710" y="496" as="targetPoint" />
            <Array as="points">
              <mxPoint x="1820" y="496" />
              <mxPoint x="1305" y="-420" />
            </Array>
          </mxGeometry>
        </mxCell>
        <mxCell id="kRywIsPJXTSg0KDeLOMC-222" value="" style="edgeStyle=orthogonalEdgeStyle;rounded=0;orthogonalLoop=1;jettySize=auto;html=1;" edge="1" parent="1" source="kRywIsPJXTSg0KDeLOMC-217" target="kRywIsPJXTSg0KDeLOMC-221">
          <mxGeometry relative="1" as="geometry" />
        </mxCell>
        <mxCell id="kRywIsPJXTSg0KDeLOMC-217" value="Початок програми" style="strokeWidth=2;html=1;shape=mxgraph.flowchart.terminator;whiteSpace=wrap;" vertex="1" parent="1">
          <mxGeometry x="1110" y="-1173" width="100" height="60" as="geometry" />
        </mxCell>
        <mxCell id="kRywIsPJXTSg0KDeLOMC-218" value="" style="strokeWidth=2;html=1;shape=mxgraph.flowchart.annotation_2;align=left;labelPosition=right;pointerEvents=1;" vertex="1" parent="1">
          <mxGeometry x="1229.75" y="-1194" width="50" height="100" as="geometry" />
        </mxCell>
        <mxCell id="kRywIsPJXTSg0KDeLOMC-219" value="&lt;span style=&quot;font-size: 16px;&quot;&gt;void doubleElement(List* list, int element);&lt;/span&gt;&lt;div&gt;&lt;span style=&quot;font-size: 16px;&quot;&gt;// дублює елемент&lt;/span&gt;&lt;/div&gt;" style="text;html=1;align=center;verticalAlign=middle;whiteSpace=wrap;rounded=0;fontSize=15;" vertex="1" parent="1">
          <mxGeometry x="1330" y="-1184" width="340" height="30" as="geometry" />
        </mxCell>
        <mxCell id="kRywIsPJXTSg0KDeLOMC-220" value="&lt;span style=&quot;font-size: 14px;&quot;&gt;// list - список&lt;br&gt;// element - цифра яка повинна&amp;nbsp;&lt;/span&gt;&lt;div&gt;&lt;span style=&quot;font-size: 14px;&quot;&gt;бути продубльована&lt;/span&gt;&lt;/div&gt;" style="text;html=1;align=center;verticalAlign=middle;whiteSpace=wrap;rounded=0;" vertex="1" parent="1">
          <mxGeometry x="1260" y="-1130" width="340" height="30" as="geometry" />
        </mxCell>
        <mxCell id="kRywIsPJXTSg0KDeLOMC-224" value="" style="edgeStyle=orthogonalEdgeStyle;rounded=0;orthogonalLoop=1;jettySize=auto;html=1;" edge="1" parent="1" source="kRywIsPJXTSg0KDeLOMC-221" target="kRywIsPJXTSg0KDeLOMC-223">
          <mxGeometry relative="1" as="geometry" />
        </mxCell>
        <mxCell id="kRywIsPJXTSg0KDeLOMC-221" value="Node* current = list-&amp;gt;head;" style="whiteSpace=wrap;html=1;rounded=0;" vertex="1" parent="1">
          <mxGeometry x="1065" y="-1050" width="190" height="60" as="geometry" />
        </mxCell>
        <mxCell id="kRywIsPJXTSg0KDeLOMC-228" value="" style="edgeStyle=orthogonalEdgeStyle;rounded=0;orthogonalLoop=1;jettySize=auto;html=1;endArrow=none;startFill=0;" edge="1" parent="1" source="kRywIsPJXTSg0KDeLOMC-223" target="kRywIsPJXTSg0KDeLOMC-227">
          <mxGeometry relative="1" as="geometry" />
        </mxCell>
        <mxCell id="kRywIsPJXTSg0KDeLOMC-250" value="Так" style="edgeLabel;html=1;align=center;verticalAlign=middle;resizable=0;points=[];" vertex="1" connectable="0" parent="kRywIsPJXTSg0KDeLOMC-228">
          <mxGeometry x="0.1609" y="2" relative="1" as="geometry">
            <mxPoint as="offset" />
          </mxGeometry>
        </mxCell>
        <mxCell id="kRywIsPJXTSg0KDeLOMC-223" value="Цикл поки current != NULL" style="strokeWidth=2;html=1;shape=mxgraph.flowchart.loop_limit;whiteSpace=wrap;" vertex="1" parent="1">
          <mxGeometry x="1110" y="-960" width="100" height="60" as="geometry" />
        </mxCell>
        <mxCell id="kRywIsPJXTSg0KDeLOMC-232" value="" style="edgeStyle=orthogonalEdgeStyle;rounded=0;orthogonalLoop=1;jettySize=auto;html=1;" edge="1" parent="1" source="kRywIsPJXTSg0KDeLOMC-226" target="kRywIsPJXTSg0KDeLOMC-230">
          <mxGeometry relative="1" as="geometry" />
        </mxCell>
        <mxCell id="kRywIsPJXTSg0KDeLOMC-226" value="" style="strokeWidth=2;shape=mxgraph.flowchart.loop_limit;whiteSpace=wrap;rotation=-180;horizontal=1;verticalAlign=middle;" vertex="1" parent="1">
          <mxGeometry x="1110.75" y="352" width="100" height="60" as="geometry" />
        </mxCell>
        <mxCell id="kRywIsPJXTSg0KDeLOMC-227" value="Цикл поки&amp;nbsp;&lt;div&gt;current !=&amp;nbsp;&lt;span style=&quot;background-color: transparent; color: light-dark(rgb(0, 0, 0), rgb(255, 255, 255));&quot;&gt;NULL&lt;/span&gt;&lt;/div&gt;" style="text;whiteSpace=wrap;html=1;align=center;" vertex="1" parent="1">
          <mxGeometry x="1084.75" y="360" width="150" height="40" as="geometry" />
        </mxCell>
        <mxCell id="kRywIsPJXTSg0KDeLOMC-230" value="Кінець програми" style="strokeWidth=2;html=1;shape=mxgraph.flowchart.terminator;whiteSpace=wrap;" vertex="1" parent="1">
          <mxGeometry x="1089.75" y="460" width="140" height="70" as="geometry" />
        </mxCell>
        <mxCell id="kRywIsPJXTSg0KDeLOMC-196" value="Виділяємо пам&#39;ять для нового вузла за допомогою malloc&lt;span style=&quot;color: rgba(0, 0, 0, 0); font-family: monospace; font-size: 0px; text-align: start; text-wrap-mode: nowrap;&quot;&gt;%3CmxGraphModel%3E%3Croot%3E%3CmxCell%20id%3D%220%22%2F%3E%3CmxCell%20id%3D%221%22%20parent%3D%220%22%2F%3E%3CmxCell%20id%3D%222%22%20value%3D%22%D0%A1%D1%82%D0%B2%D0%BE%D1%80%D1%8E%D1%94%D0%BC%D0%BE%20%D0%B7%D0%B2%D0%B8%D1%87%D0%B0%D0%B9%D0%BD%D0%B8%D0%B9%20%D0%B4%D0%B8%D0%BD%D0%B0%D0%BC%D1%96%D1%87%D0%BD%D0%B8%D0%B9%20%D1%81%D0%BF%D0%B8%D1%81%D0%BE%D0%BA%20%D0%B7%D0%B0%20%D0%B4%D0%BE%D0%BC%D0%BE%D0%B3%D0%BE%D1%8E%20malloc%22%20style%3D%22rounded%3D0%3BwhiteSpace%3Dwrap%3Bhtml%3D1%3B%22%20vertex%3D%221%22%20parent%3D%221%22%3E%3CmxGeometry%20x%3D%22-500.5%22%20y%3D%22-521%22%20width%3D%22190%22%20height%3D%2260%22%20as%3D%22geometry%22%2F%3E%3C%2FmxCell%3E%3C%2Froot%3E%3C%2FmxGraphModel%3E&lt;/span&gt;&lt;span style=&quot;color: rgba(0, 0, 0, 0); font-family: monospace; font-size: 0px; text-align: start; text-wrap-mode: nowrap;&quot;&gt;%3CmxGraphModel%3E%3Croot%3E%3CmxCell%20id%3D%220%22%2F%3E%3CmxCell%20id%3D%221%22%20parent%3D%220%22%2F%3E%3CmxCell%20id%3D%222%22%20value%3D%22%D0%A1%D1%82%D0%B2%D0%BE%D1%80%D1%8E%D1%94%D0%BC%D0%BE%20%D0%B7%D0%B2%D0%B8%D1%87%D0%B0%D0%B9%D0%BD%D0%B8%D0%B9%20%D0%B4%D0%B8%D0%BD%D0%B0%D0%BC%D1%96%D1%87%D0%BD%D0%B8%D0%B9%20%D1%81%D0%BF%D0%B8%D1%81%D0%BE%D0%BA%20%D0%B7%D0%B0%20%D0%B4%D0%BE%D0%BC%D0%BE%D0%B3%D0%BE%D1%8E%20malloc%22%20style%3D%22rounded%3D0%3BwhiteSpace%3Dwrap%3Bhtml%3D1%3B%22%20vertex%3D%221%22%20parent%3D%221%22%3E%3CmxGeometry%20x%3D%22-500.5%22%20y%3D%22-521%22%20width%3D%22190%22%20height%3D%2260%22%20as%3D%22geometry%22%2F%3E%3C%2FmxCell%3E%3C%2Froot%3E%3C%2FmxGraphModel%3E&lt;/span&gt;" style="rounded=0;whiteSpace=wrap;html=1;" vertex="1" parent="1">
          <mxGeometry x="1065" y="-700" width="190" height="60" as="geometry" />
        </mxCell>
        <mxCell id="kRywIsPJXTSg0KDeLOMC-193" value="current-&amp;gt;data == element?" style="strokeWidth=2;html=1;shape=mxgraph.flowchart.decision;whiteSpace=wrap;" vertex="1" parent="1">
          <mxGeometry x="1104.75" y="-880" width="110" height="110" as="geometry" />
        </mxCell>
        <mxCell id="kRywIsPJXTSg0KDeLOMC-233" value="Ні" style="edgeLabel;html=1;align=center;verticalAlign=middle;resizable=0;points=[];" vertex="1" connectable="0" parent="1">
          <mxGeometry x="1162" y="-473.9411764705883" as="geometry" />
        </mxCell>
        <mxCell id="kRywIsPJXTSg0KDeLOMC-234" value="" style="edgeStyle=orthogonalEdgeStyle;rounded=0;orthogonalLoop=1;jettySize=auto;html=1;endArrow=none;startFill=0;" edge="1" parent="1" source="kRywIsPJXTSg0KDeLOMC-235">
          <mxGeometry relative="1" as="geometry">
            <mxPoint x="1160.0588235294117" y="-340" as="targetPoint" />
          </mxGeometry>
        </mxCell>
        <mxCell id="kRywIsPJXTSg0KDeLOMC-235" value="&lt;div&gt;&amp;nbsp;newNode-&amp;gt;data = element;&lt;/div&gt;&lt;div&gt;&amp;nbsp; &amp;nbsp; newNode-&amp;gt;next = current-&amp;gt;next;&lt;/div&gt;&lt;div&gt;&amp;nbsp; newNode-&amp;gt;prev = current;&lt;/div&gt;" style="whiteSpace=wrap;html=1;rounded=0;" vertex="1" parent="1">
          <mxGeometry x="1065" y="-439" width="190" height="60" as="geometry" />
        </mxCell>
        <mxCell id="kRywIsPJXTSg0KDeLOMC-237" value="Так" style="edgeStyle=orthogonalEdgeStyle;rounded=0;orthogonalLoop=1;jettySize=auto;html=1;" edge="1" parent="1" source="kRywIsPJXTSg0KDeLOMC-238" target="kRywIsPJXTSg0KDeLOMC-239">
          <mxGeometry relative="1" as="geometry" />
        </mxCell>
        <mxCell id="kRywIsPJXTSg0KDeLOMC-238" value="Чи є помилка?" style="strokeWidth=2;html=1;shape=mxgraph.flowchart.decision;whiteSpace=wrap;" vertex="1" parent="1">
          <mxGeometry x="1104" y="-620" width="112" height="110" as="geometry" />
        </mxCell>
        <mxCell id="kRywIsPJXTSg0KDeLOMC-239" value="Double el error" style="shape=parallelogram;html=1;strokeWidth=2;perimeter=parallelogramPerimeter;whiteSpace=wrap;rounded=1;arcSize=12;size=0.23;" vertex="1" parent="1">
          <mxGeometry x="1600" y="-610" width="220" height="90" as="geometry" />
        </mxCell>
        <mxCell id="kRywIsPJXTSg0KDeLOMC-241" value="" style="edgeStyle=elbowEdgeStyle;elbow=vertical;endArrow=classic;html=1;curved=0;rounded=0;endSize=8;startSize=8;exitX=0.5;exitY=1;exitDx=0;exitDy=0;" edge="1" parent="1" source="kRywIsPJXTSg0KDeLOMC-239" target="kRywIsPJXTSg0KDeLOMC-230">
          <mxGeometry width="50" height="50" relative="1" as="geometry">
            <mxPoint x="1740.25" y="-513" as="sourcePoint" />
            <mxPoint x="1260" y="502" as="targetPoint" />
            <Array as="points">
              <mxPoint x="1510.25" y="497" />
            </Array>
          </mxGeometry>
        </mxCell>
        <mxCell id="kRywIsPJXTSg0KDeLOMC-245" value="" style="edgeStyle=orthogonalEdgeStyle;rounded=0;orthogonalLoop=1;jettySize=auto;html=1;" edge="1" parent="1" source="kRywIsPJXTSg0KDeLOMC-242" target="kRywIsPJXTSg0KDeLOMC-244">
          <mxGeometry relative="1" as="geometry" />
        </mxCell>
        <mxCell id="kRywIsPJXTSg0KDeLOMC-249" value="Ні" style="edgeLabel;html=1;align=center;verticalAlign=middle;resizable=0;points=[];" vertex="1" connectable="0" parent="kRywIsPJXTSg0KDeLOMC-245">
          <mxGeometry x="-0.2393" relative="1" as="geometry">
            <mxPoint as="offset" />
          </mxGeometry>
        </mxCell>
        <mxCell id="kRywIsPJXTSg0KDeLOMC-242" value="current-&amp;gt;next != NULL?" style="strokeWidth=2;html=1;shape=mxgraph.flowchart.decision;whiteSpace=wrap;" vertex="1" parent="1">
          <mxGeometry x="1104.75" y="-328" width="112" height="110" as="geometry" />
        </mxCell>
        <mxCell id="kRywIsPJXTSg0KDeLOMC-253" value="" style="edgeStyle=orthogonalEdgeStyle;rounded=0;orthogonalLoop=1;jettySize=auto;html=1;exitX=1;exitY=0.5;exitDx=0;exitDy=0;" edge="1" parent="1" source="kRywIsPJXTSg0KDeLOMC-244">
          <mxGeometry relative="1" as="geometry">
            <mxPoint x="1642.25" y="-235.00000000000045" as="sourcePoint" />
            <mxPoint x="1160" y="90" as="targetPoint" />
            <Array as="points">
              <mxPoint x="1606" y="-273" />
              <mxPoint x="1606" y="90" />
              <mxPoint x="1160" y="90" />
            </Array>
          </mxGeometry>
        </mxCell>
        <mxCell id="kRywIsPJXTSg0KDeLOMC-244" value="list-&amp;gt;tail = newNode" style="whiteSpace=wrap;html=1;strokeWidth=2;" vertex="1" parent="1">
          <mxGeometry x="1360" y="-301.5" width="187.25" height="57" as="geometry" />
        </mxCell>
        <mxCell id="kRywIsPJXTSg0KDeLOMC-246" value="current-&amp;gt;next-&amp;gt;prev = newNode;" style="whiteSpace=wrap;html=1;strokeWidth=2;" vertex="1" parent="1">
          <mxGeometry x="1068.37" y="-100" width="187.25" height="57" as="geometry" />
        </mxCell>
        <mxCell id="kRywIsPJXTSg0KDeLOMC-247" value="&lt;div&gt;&amp;nbsp;current-&amp;gt;next = newNode;&lt;/div&gt;&lt;div&gt;&amp;nbsp; &amp;nbsp;current = newNode-&amp;gt;next;&lt;/div&gt;" style="whiteSpace=wrap;html=1;strokeWidth=2;" vertex="1" parent="1">
          <mxGeometry x="1072.75" y="175" width="187.25" height="57" as="geometry" />
        </mxCell>
        <mxCell id="kRywIsPJXTSg0KDeLOMC-254" value="" style="edgeStyle=orthogonalEdgeStyle;rounded=0;orthogonalLoop=1;jettySize=auto;html=1;" edge="1" parent="1" source="kRywIsPJXTSg0KDeLOMC-255">
          <mxGeometry relative="1" as="geometry">
            <mxPoint x="605.2857142857147" y="-2570" as="targetPoint" />
          </mxGeometry>
        </mxCell>
        <mxCell id="kRywIsPJXTSg0KDeLOMC-255" value="Початок програми" style="strokeWidth=2;html=1;shape=mxgraph.flowchart.terminator;whiteSpace=wrap;" vertex="1" parent="1">
          <mxGeometry x="555.25" y="-2669" width="100" height="60" as="geometry" />
        </mxCell>
        <mxCell id="kRywIsPJXTSg0KDeLOMC-256" value="" style="strokeWidth=2;html=1;shape=mxgraph.flowchart.annotation_2;align=left;labelPosition=right;pointerEvents=1;" vertex="1" parent="1">
          <mxGeometry x="675" y="-2690" width="50" height="100" as="geometry" />
        </mxCell>
        <mxCell id="kRywIsPJXTSg0KDeLOMC-257" value="&lt;span style=&quot;font-size: 16px;&quot;&gt;void freeList(List* list)&lt;/span&gt;&lt;div&gt;&lt;span style=&quot;font-size: 16px;&quot;&gt;// видаляє список&lt;/span&gt;&lt;/div&gt;" style="text;html=1;align=center;verticalAlign=middle;whiteSpace=wrap;rounded=0;fontSize=15;" vertex="1" parent="1">
          <mxGeometry x="675" y="-2685" width="340" height="30" as="geometry" />
        </mxCell>
        <mxCell id="kRywIsPJXTSg0KDeLOMC-258" value="&lt;span style=&quot;font-size: 14px;&quot;&gt;// list - список&lt;/span&gt;" style="text;html=1;align=center;verticalAlign=middle;whiteSpace=wrap;rounded=0;" vertex="1" parent="1">
          <mxGeometry x="675" y="-2650" width="340" height="30" as="geometry" />
        </mxCell>
        <mxCell id="kRywIsPJXTSg0KDeLOMC-259" value="" style="edgeStyle=orthogonalEdgeStyle;rounded=0;orthogonalLoop=1;jettySize=auto;html=1;" edge="1" parent="1" source="kRywIsPJXTSg0KDeLOMC-260" target="kRywIsPJXTSg0KDeLOMC-262">
          <mxGeometry relative="1" as="geometry" />
        </mxCell>
        <mxCell id="kRywIsPJXTSg0KDeLOMC-260" value="Node* current = list-&amp;gt;head;" style="whiteSpace=wrap;html=1;rounded=0;" vertex="1" parent="1">
          <mxGeometry x="510.25" y="-2571" width="190" height="60" as="geometry" />
        </mxCell>
        <mxCell id="kRywIsPJXTSg0KDeLOMC-261" value="" style="edgeStyle=orthogonalEdgeStyle;rounded=0;orthogonalLoop=1;jettySize=auto;html=1;endArrow=none;startFill=0;" edge="1" parent="1" source="kRywIsPJXTSg0KDeLOMC-262">
          <mxGeometry relative="1" as="geometry">
            <mxPoint x="605.25" y="-2236" as="targetPoint" />
          </mxGeometry>
        </mxCell>
        <mxCell id="kRywIsPJXTSg0KDeLOMC-262" value="Цикл поки current != NULL" style="strokeWidth=2;html=1;shape=mxgraph.flowchart.loop_limit;whiteSpace=wrap;" vertex="1" parent="1">
          <mxGeometry x="555.25" y="-2361" width="100" height="60" as="geometry" />
        </mxCell>
        <mxCell id="kRywIsPJXTSg0KDeLOMC-263" value="Node* nextNode;" style="whiteSpace=wrap;html=1;rounded=0;" vertex="1" parent="1">
          <mxGeometry x="510.25" y="-2471" width="190" height="60" as="geometry" />
        </mxCell>
        <mxCell id="kRywIsPJXTSg0KDeLOMC-264" value="" style="edgeStyle=orthogonalEdgeStyle;rounded=0;orthogonalLoop=1;jettySize=auto;html=1;" edge="1" parent="1" source="kRywIsPJXTSg0KDeLOMC-265" target="kRywIsPJXTSg0KDeLOMC-267">
          <mxGeometry relative="1" as="geometry" />
        </mxCell>
        <mxCell id="kRywIsPJXTSg0KDeLOMC-265" value="nextNode = current-&amp;gt;next;" style="whiteSpace=wrap;html=1;rounded=0;" vertex="1" parent="1">
          <mxGeometry x="510.25" y="-2251" width="190" height="60" as="geometry" />
        </mxCell>
        <mxCell id="kRywIsPJXTSg0KDeLOMC-266" value="" style="edgeStyle=orthogonalEdgeStyle;rounded=0;orthogonalLoop=1;jettySize=auto;html=1;" edge="1" parent="1" source="kRywIsPJXTSg0KDeLOMC-267" target="kRywIsPJXTSg0KDeLOMC-269">
          <mxGeometry relative="1" as="geometry" />
        </mxCell>
        <mxCell id="kRywIsPJXTSg0KDeLOMC-267" value="free(current);" style="whiteSpace=wrap;html=1;rounded=0;" vertex="1" parent="1">
          <mxGeometry x="510.25" y="-2151" width="190" height="60" as="geometry" />
        </mxCell>
        <mxCell id="kRywIsPJXTSg0KDeLOMC-268" value="" style="edgeStyle=orthogonalEdgeStyle;rounded=0;orthogonalLoop=1;jettySize=auto;html=1;endArrow=none;startFill=0;" edge="1" parent="1" source="kRywIsPJXTSg0KDeLOMC-269">
          <mxGeometry relative="1" as="geometry">
            <mxPoint x="605.25" y="-1941" as="targetPoint" />
          </mxGeometry>
        </mxCell>
        <mxCell id="kRywIsPJXTSg0KDeLOMC-269" value="current = nextNode;" style="whiteSpace=wrap;html=1;rounded=0;" vertex="1" parent="1">
          <mxGeometry x="510.25" y="-2041" width="190" height="60" as="geometry" />
        </mxCell>
        <mxCell id="kRywIsPJXTSg0KDeLOMC-270" value="" style="edgeStyle=orthogonalEdgeStyle;rounded=0;orthogonalLoop=1;jettySize=auto;html=1;" edge="1" parent="1" source="kRywIsPJXTSg0KDeLOMC-271" target="kRywIsPJXTSg0KDeLOMC-275">
          <mxGeometry relative="1" as="geometry" />
        </mxCell>
        <mxCell id="kRywIsPJXTSg0KDeLOMC-271" value="free(list)" style="whiteSpace=wrap;html=1;rounded=0;" vertex="1" parent="1">
          <mxGeometry x="510" y="-1841" width="190" height="60" as="geometry" />
        </mxCell>
        <mxCell id="kRywIsPJXTSg0KDeLOMC-272" value="" style="strokeWidth=2;shape=mxgraph.flowchart.loop_limit;whiteSpace=wrap;rotation=-180;horizontal=1;verticalAlign=middle;" vertex="1" parent="1">
          <mxGeometry x="555" y="-1941" width="100" height="60" as="geometry" />
        </mxCell>
        <mxCell id="kRywIsPJXTSg0KDeLOMC-273" value="" style="edgeStyle=orthogonalEdgeStyle;rounded=0;orthogonalLoop=1;jettySize=auto;html=1;exitX=0.5;exitY=0;exitDx=0;exitDy=0;exitPerimeter=0;" edge="1" parent="1" source="kRywIsPJXTSg0KDeLOMC-272" target="kRywIsPJXTSg0KDeLOMC-271">
          <mxGeometry relative="1" as="geometry" />
        </mxCell>
        <mxCell id="kRywIsPJXTSg0KDeLOMC-274" value="Цикл поки&amp;nbsp;&lt;div&gt;current !=&amp;nbsp;&lt;span style=&quot;background-color: transparent; color: light-dark(rgb(0, 0, 0), rgb(255, 255, 255));&quot;&gt;NULL&lt;/span&gt;&lt;/div&gt;" style="text;whiteSpace=wrap;html=1;align=center;" vertex="1" parent="1">
          <mxGeometry x="530" y="-1931" width="150" height="40" as="geometry" />
        </mxCell>
        <mxCell id="kRywIsPJXTSg0KDeLOMC-275" value="Кінець програми" style="strokeWidth=2;html=1;shape=mxgraph.flowchart.terminator;whiteSpace=wrap;" vertex="1" parent="1">
          <mxGeometry x="535.25" y="-1739" width="140" height="70" as="geometry" />
        </mxCell>
        <mxCell id="kRywIsPJXTSg0KDeLOMC-279" value="" style="edgeStyle=orthogonalEdgeStyle;rounded=0;orthogonalLoop=1;jettySize=auto;html=1;" edge="1" parent="1" source="kRywIsPJXTSg0KDeLOMC-276" target="kRywIsPJXTSg0KDeLOMC-278">
          <mxGeometry relative="1" as="geometry" />
        </mxCell>
        <mxCell id="kRywIsPJXTSg0KDeLOMC-281" value="Так" style="edgeLabel;html=1;align=center;verticalAlign=middle;resizable=0;points=[];" vertex="1" connectable="0" parent="kRywIsPJXTSg0KDeLOMC-279">
          <mxGeometry x="-0.324" y="2" relative="1" as="geometry">
            <mxPoint as="offset" />
          </mxGeometry>
        </mxCell>
        <mxCell id="kRywIsPJXTSg0KDeLOMC-276" value="myList ==&amp;nbsp;&lt;div&gt;NULL?&lt;/div&gt;" style="strokeWidth=2;html=1;shape=mxgraph.flowchart.decision;whiteSpace=wrap;" vertex="1" parent="1">
          <mxGeometry x="56.75" y="-960" width="100" height="100" as="geometry" />
        </mxCell>
        <mxCell id="kRywIsPJXTSg0KDeLOMC-278" value="Failed to create list. Exiting." style="shape=parallelogram;html=1;strokeWidth=2;perimeter=parallelogramPerimeter;whiteSpace=wrap;rounded=1;arcSize=12;size=0.23;" vertex="1" parent="1">
          <mxGeometry x="360" y="-955" width="220" height="90" as="geometry" />
        </mxCell>
        <mxCell id="kRywIsPJXTSg0KDeLOMC-280" value="" style="edgeStyle=segmentEdgeStyle;endArrow=classic;html=1;curved=0;rounded=0;endSize=8;startSize=8;exitX=1;exitY=0.5;exitDx=0;exitDy=0;entryX=1;entryY=0.5;entryDx=0;entryDy=0;entryPerimeter=0;" edge="1" parent="1" source="kRywIsPJXTSg0KDeLOMC-278" target="kRywIsPJXTSg0KDeLOMC-34">
          <mxGeometry width="50" height="50" relative="1" as="geometry">
            <mxPoint x="470" y="-830" as="sourcePoint" />
            <mxPoint x="540" y="-680" as="targetPoint" />
            <Array as="points">
              <mxPoint x="555" y="-840" />
              <mxPoint x="540" y="-840" />
              <mxPoint x="540" y="-133" />
            </Array>
          </mxGeometry>
        </mxCell>
      </root>
    </mxGraphModel>
  </diagram>
  <diagram id="KVLWpx-fEzlTu26YX7g9" name="Страница — 2">
    <mxGraphModel dx="1050" dy="522" grid="1" gridSize="10" guides="1" tooltips="1" connect="1" arrows="1" fold="1" page="1" pageScale="1" pageWidth="827" pageHeight="1169" math="0" shadow="0">
      <root>
        <mxCell id="0" />
        <mxCell id="1" parent="0" />
      </root>
    </mxGraphModel>
  </diagram>
</mxfile>
